<?xml version="1.0" encoding="UTF-8"?><svg id="Layer_2" xmlns="http://www.w3.org/2000/svg" viewBox="0 0 512.554 73.4073"><g id="Components"><g id="aaa4db8b-6bae-45d9-bba0-c703c5744fb8_1"><path d="M156.4661,38.4474v20.3457h-7.7949v-18.2822c0-4.0693-2.0635-6.4766-5.4443-6.4766-3.2666,0-5.3877,2.4648-5.3877,6.0176v18.7412h-7.7939v-18.2822c0-4.0693-2.0635-6.4766-5.4453-6.4766-3.2666,0-5.3867,2.4648-5.3867,6.0176v18.7412h-7.8525v-30.9482h6.8779v3.3809c2.0635-2.5215,5.3301-4.126,9.0557-4.126,4.4121,0,7.3926,1.8906,8.998,4.8145,2.0059-2.9805,5.502-4.8145,9.4561-4.8145,7.0498,0,10.7178,4.585,10.7178,11.3477Z" style="fill:#000; stroke-width:0px;"/><path d="M187.5794,39.88v18.9131h-6.8203v-3.7822c-2.751,3.2666-5.7891,4.6416-10.5459,4.6416-6.6475,0-10.3154-4.2412-10.3154-9.3984,0-4.2988,1.7764-7.5078,6.7627-9.3418,2.9795-1.0898,7.4502-1.7773,13.2383-2.6367-.3437-2.8652-2.0059-4.1836-5.6738-4.1836-2.292,0-5.2148.9736-6.1895,3.7822l-7.0488-2.2354c1.5469-5.1006,5.7881-8.6543,13.2383-8.6543,5.4453,0,9.915,1.4902,12.0928,5.6172,1.2041,2.292,1.2617,4.4697,1.2617,7.2783ZM179.8421,44.6368c-5.2158.8594-7.3359,1.3184-9.1133,1.9492-2.292.917-3.209,2.0059-3.209,3.5527,0,2.1211,1.6621,3.3818,4.3555,3.3818,4.2988,0,6.5342-2.8086,7.1641-4.127.6309-1.3184.7451-3.2666.8027-4.7568Z" style="fill:#000; stroke-width:0px;"/><path d="M221.7337,41.4278v17.3652h-7.9092v-14.6143c0-2.8086,0-9.915-6.6484-9.915-2.6934,0-6.5908,1.1465-6.5908,8.8262v15.7031h-7.9092v-30.9482h6.9355v3.209c2.2344-2.5215,5.5586-4.126,10.0293-4.126,12.0928,0,12.0928,11.9209,12.0928,14.5Z" style="fill:#000; stroke-width:0px;"/><path d="M254.6263,27.8448v33.0684c0,1.5479-.1152,2.8662-.459,4.1846-1.4902,5.6738-7.2207,8.3096-14.041,8.3096-5.2725,0-9.9727-2.6934-12.3223-6.7051l7.2217-3.4961c.9736,1.834,2.9795,2.8086,5.1582,2.8086,3.4961,0,6.7627-1.7773,6.6475-5.2158v-3.0947c-2.0059,1.2607-4.4697,1.9482-7.3926,1.9482-8.54,0-14.2715-7.0488-14.2715-16.334,0-9.4561,5.7891-16.334,14.6719-16.334,3.21,0,5.9033.917,7.9668,2.5791v-1.7188h6.8203ZM247.8059,43.3185c0-5.6162-1.9482-9.3984-6.8203-9.3984-5.2148,0-7.5645,4.2402-7.5645,9.3984,0,5.2158,2.2344,9.3994,7.2783,9.3994,5.2148,0,7.1064-3.7822,7.1064-9.3994Z" style="fill:#000; stroke-width:0px;"/><path d="M258.6341,43.3185c0-9.6855,6.4756-16.334,15.6455-16.334,9.3418,0,15.7041,6.7637,15.7041,16.334,0,9.6289-6.4189,16.334-15.7041,16.334-9.3418,0-15.6455-6.7627-15.6455-16.334ZM281.7308,43.3185c0-5.502-2.5225-9.0547-7.4512-9.0547-5.1006,0-7.3936,3.668-7.3936,9.0547,0,5.5596,2.5225,9.0557,7.3936,9.0557,4.9863,0,7.4512-3.7256,7.4512-9.0557Z" style="fill:#000; stroke-width:0px;"/><path d="M292.5579,49.5089l7.9668-1.2041c.6309,2.9229,2.9805,4.6426,6.4189,4.6426,2.8086,0,4.4131-1.1465,4.4131-3.0947,0-1.834-.7451-2.2354-7.4502-4.0117-7.5654-1.9492-10.3164-4.3564-10.3164-9.1133,0-5.96,4.8145-9.7432,12.3223-9.7432,7.2783,0,12.3213,3.5537,13.124,9.1699l-7.9658,1.4336c-.2871-2.293-2.0635-3.668-4.9863-3.8975-2.8662-.1719-4.7568.8594-4.7568,2.6357,0,1.6055,1.0312,2.1211,8.2529,3.9551,7.0488,1.834,9.7432,4.3555,9.7432,9.1699,0,6.3613-4.8721,10.2012-12.9531,10.2012-7.7939,0-12.7803-3.668-13.8125-10.1436Z" style="fill:#000; stroke-width:0px;"/><path d="M352.2737,27.8448v44.7031h-7.8525v-14.8438c-2.0059,1.2607-4.4697,1.9482-7.3926,1.9482-8.54,0-14.2715-7.0488-14.2715-16.334,0-9.4561,5.7891-16.334,14.6719-16.334,3.21,0,5.9033.917,7.9668,2.5791v-1.7188h6.8779ZM345.3958,43.3185c0-5.6162-1.9482-9.3984-6.8203-9.3984-5.2148,0-7.5645,4.2402-7.5645,9.3984,0,5.2158,2.2344,9.3994,7.2783,9.3994,5.2148,0,7.1064-3.7822,7.1064-9.3994Z" style="fill:#000; stroke-width:0px;"/><path d="M386.427,27.8448v30.9482h-6.877v-3.209c-2.2354,2.5215-5.5596,4.126-10.0303,4.126-12.0928,0-12.0928-11.9209-12.0928-14.5v-17.3652h7.9092v14.6143c0,2.8086,0,9.915,6.6484,9.915,2.6934,0,6.5908-1.1465,6.5908-8.8262v-15.7031h7.8516Z" style="fill:#000; stroke-width:0px;"/><path d="M406.0804,52.3741c3.0381,0,5.2725-1.376,6.4189-3.8975l7.7949,2.2354c-2.3496,5.6738-7.7949,8.9404-13.7549,8.9404-9.5137,0-16.1045-6.6475-16.1045-15.9326,0-10.1436,6.4756-16.7354,15.6455-16.7354,9.7432,0,15.417,7.2793,14.5,18.5117h-21.7783c.5732,4.4131,3.0371,6.8779,7.2783,6.8779ZM399.0315,39.7081h13.6396c-.5732-4.1836-2.5215-5.96-6.2471-5.96-4.1836,0-6.5908,2.0059-7.3926,5.96Z" style="fill:#000; stroke-width:0px;"/><path d="M439.7757,52.3741c3.0381,0,5.2725-1.376,6.4189-3.8975l7.7949,2.2354c-2.3496,5.6738-7.7949,8.9404-13.7549,8.9404-9.5137,0-16.1045-6.6475-16.1045-15.9326,0-10.1436,6.4756-16.7354,15.6455-16.7354,9.7432,0,15.417,7.2793,14.5,18.5117h-21.7783c.5732,4.4131,3.0371,6.8779,7.2783,6.8779ZM432.7268,39.7081h13.6396c-.5732-4.1836-2.5215-5.96-6.2471-5.96-4.1836,0-6.5908,2.0059-7.3926,5.96Z" style="fill:#000; stroke-width:0px;"/><path d="M454.386,57.8185l15.1875-23.2109h-13.4688v-6.7627h25.5039v.9736l-15.1299,23.2119h14.5566v6.7627h-26.6494v-.9746Z" style="fill:#000; stroke-width:0px;"/><path d="M512.554,27.8448l-17.4805,44.7031h-7.2207l5.1006-13.9844-12.4941-30.7187h8.0811l8.1377,21.0332,8.0811-21.0332h7.7949Z" style="fill:#000; stroke-width:0px;"/><path d="M92.7103,40.0324c-.1241,16.354-13.6811,29.4336-30.0356,29.4336H21.0401c-6.4024,0-13.7919-4.7779-16.3009-10.6682-4.5068-10.5802.3506-20.8011,8.7256-25.0306,7.9416-4.0106,14.0371-9.3938,18.068-13.3289,7.6173-7.436,15.7549-10.296,25.8026-10.296h-.6742c16.4563,0,36.1741,13.4049,36.049,29.8901Z" style="fill:#fdba16; stroke-width:0px;"/><path d="M92.7096,39.8779v.1563c-.125,16.3522-13.6789,29.4332-30.0351,29.4332H21.0398c-6.4019,0-13.7923-4.7798-16.3014-10.6696-1.4265-3.3494-1.919-6.6714-1.6532-9.7746,9.8997,5.878,29.1439,7.7227,43.4051-1.2507,13.9995-8.8092,12.4477-20.4676,42.2719-20.4676,2.474,3.8184,3.9474,8.0784,3.9474,12.5729Z" style="fill:#f89621; stroke-width:0px;"/><path d="M60.9275,62.3174h-7.0455c-1.6743,0-3.0314-1.3571-3.0314-3.0314s1.3571-3.0314,3.0314-3.0314h7.0455c6.6044,0,12.7942-3.5069,16.1535-9.1522.8559-1.4387,2.7164-1.9112,4.1552-1.0549,1.4387.8561,1.911,2.7166,1.0549,4.1552-4.4468,7.4726-12.6329,12.1146-21.3637,12.1146Z" style="fill:#000; stroke-width:0px;"/><path d="M43.0333,29.4932c-.8584,0-1.7109-.3604-2.3086-1.0635-1.0811-1.2705-.9395-3.168.3242-4.2559.4951-.4268,12.3652-10.3906,32.3135-4.8213,1.6123.4502,2.5547,2.1221,2.1045,3.7354-.4502,1.6133-2.127,2.5537-3.7354,2.1045-16.6826-4.6582-26.3379,3.2471-26.7402,3.5869-.5703.4795-1.2656.7139-1.958.7139Z" style="fill:#fff; stroke-width:0px;"/><circle cx="82.5" cy="40.6034" r="3.1559" style="fill:#000; stroke-width:0px;"/><path d="M47.3043,5.1909c.4339,12.5544,10.7087,22.6323,23.3871,22.6987l19.4159.1017-.5047-1.6453c-3.1072-10.1687-12.4688-17.1292-23.0976-17.1848l-8.2339-.0431c-3.7451-.0196-7.3863-1.243-10.3803-3.4902l-.5865-.437Z" style="fill:#039447; stroke-width:0px;"/><path d="M66.521,6.1299l-8.234-.0431c-8.1832,0-14.2303-6.0867-14.2303-6.0867,0,0,0,7.1565.5893,8.902-.7515.2349-1.4914.4913-2.219.7734-4.6969,1.8206-8.953,4.6317-13.0117,8.5939-5.7792,5.6415-11.4436,9.8259-17.317,12.792-4.9065,2.478-8.6908,6.6507-10.6556,11.7497-2.0852,5.4116-1.9049,11.511.5077,17.1748,1.4426,3.3865,4.2212,6.5453,7.8236,8.8943,3.5778,2.3326,7.5788,3.6172,11.2661,3.6172h41.6346c18.0973,0,33.0669-14.5528,33.0669-32.4418,0-4.2317-3.0307-33.3696-29.2205-33.9256ZM66.4893,12.1926c4.5648.0238,8.9134,1.4765,12.5759,4.2009,3.0036,2.2341,5.32,5.1559,6.7928,8.5442l-15.1506-.0796c-5.3313-.0278-10.3694-2.0901-14.1866-5.8068-2.3628-2.3007-4.3074-5.6899-5.3334-8.7378,4.549,2.6807,15.3019,1.879,15.3019,1.879ZM62.6747,66.4346H21.0401c-5.1955,0-11.5094-4.1237-13.512-8.8248-4.0157-9.4272.6345-17.7689,7.3034-21.1367,6.4344-3.2496,12.5901-7.785,18.8189-13.8657,3.9052-3.8124,8.023-6.3901,12.7061-7.8747h0c1.3635,3.2166,3.3656,6.1603,5.9351,8.6622,4.9469,4.8169,11.4759,7.4895,18.3839,7.5258l17.1489.09c1.1126,2.248,1.8546,5.0946,1.8546,8.9986-.1105,14.5709-12.2245,26.4252-27.0042,26.4252ZM45.3306,11.8586c.003.0102.006.0205.009.0307-.003-.0102-.006-.0204-.009-.0307ZM94.0383,31.0434l.1763.0009h0l-.1763-.0009Z" style="fill:#000; stroke-width:0px;"/></g></g></svg>